<?xml version="1.0" encoding="UTF-8"?>
<svg xmlns="http://www.w3.org/2000/svg" xmlns:xlink="http://www.w3.org/1999/xlink" width="555pt" height="192.7pt" viewBox="0 0 555 192.7" version="1.1">
<g id="surface1">
<path style="fill-rule:evenodd;fill:rgb(0%,0.784302%,0%);fill-opacity:1;stroke-width:2;stroke-linecap:butt;stroke-linejoin:miter;stroke:rgb(0%,0%,0%);stroke-opacity:1;stroke-miterlimit:4;" d="M 3342.226563 1702.390625 C 3531.40625 1890.867188 3712.1875 1843.054688 3954.84375 1778.210938 C 4597.8125 1632.429688 5112.695313 1744.851563 5486.875 1926.0625 C 5550.703125 1731.453125 5468.945313 1506.84375 5260.078125 1479.265625 C 5179.453125 1465.828125 5130.15625 1435.046875 5112.265625 1376.765625 C 5060.234375 1261.375 4896.601563 1204.851563 4826.679688 1237.390625 C 4779.648438 1264.265625 4771.25 1236.21875 4764.53125 1190.28125 C 4739.335938 1095.085938 4613.90625 1055.867188 4525.976563 1086.101563 C 4459.84375 979.03125 4412.382813 963.132813 4279.023438 961.84375 C 4277.851563 929.734375 4232.5 880.046875 4173.125 914.695313 C 4179.414063 850.710938 4123.007813 844.851563 4067.382813 854.304688 C 4091.171875 798.289063 4111.328125 745.671875 4119.453125 689.65625 C 4085.859375 696.375 4042.1875 709.8125 4008.59375 716.53125 C 4017.539063 656.0625 4026.484375 595.59375 4035.46875 535.125 C 3999.609375 541.84375 3952.03125 567.039063 3916.171875 573.757813 C 3918.4375 537.9375 3932.421875 483.601563 3934.648438 447.742188 C 3892.109375 452.234375 3849.570313 478.601563 3806.992188 491.453125 C 3802.5 448.914063 3798.046875 376.101563 3793.554688 333.523438 C 3751.015625 351.453125 3718.515625 381.140625 3679.335938 410.828125 C 3652.460938 361.570313 3612.109375 275.28125 3585.234375 226.023438 C 3558.671875 248.71875 3478.320313 402.351563 3446.09375 425.867188 C 3068.320313 5.320313 2462.1875 0.164063 2088.515625 424.65625 C 2055.546875 395.789063 1982.421875 252.15625 1955.78125 229.382813 C 1928.90625 278.640625 1891.914063 351.453125 1865.039063 400.710938 C 1822.5 382.820313 1779.921875 371.609375 1737.382813 353.679688 C 1732.890625 396.257813 1728.4375 438.796875 1723.945313 481.375 C 1681.367188 476.882813 1638.828125 472.390625 1596.289063 467.898438 C 1598.515625 503.757813 1600.742188 539.578125 1603.007813 575.4375 C 1567.148438 568.71875 1531.328125 562 1495.46875 555.28125 C 1504.453125 615.75 1523.476563 642.625 1532.421875 703.09375 C 1498.828125 696.375 1478.671875 706.453125 1445.078125 699.734375 C 1466.367188 785.984375 1437.226563 784.851563 1458.515625 840.867188 C 1406.601563 832.039063 1366.09375 854.03125 1369.53125 901.726563 C 1308.671875 880.515625 1251.484375 924.421875 1250.195313 958.445313 C 1123.867188 967.546875 1071.953125 987.429688 1035.195313 1086.101563 C 947.265625 1055.867188 811.757813 1084.96875 786.5625 1180.203125 C 766.40625 1216.023438 759.6875 1254.109375 712.65625 1227.234375 C 615.859375 1200.203125 479.101563 1249.539063 427.070313 1364.96875 C 409.140625 1423.210938 369.960938 1445.59375 289.335938 1459.03125 C 122.460938 1503.5625 0.390625 1674.34375 37.34375 1922.703125 C 411.523438 1741.492188 949.921875 1635.789063 1545.859375 1771.492188 C 1705.703125 1793.875 2038.164063 1923.71875 2166.5625 1695.515625 C 2329.023438 1825.046875 2534.84375 1902.546875 2758.75 1902.546875 C 2978.671875 1902.546875 3181.132813 1827.78125 3342.226563 1702.390625 Z M 3342.226563 1702.390625 " transform="matrix(0.1,0,0,-0.1,0,192.7)"/>
<path style=" stroke:none;fill-rule:evenodd;fill:rgb(100%,100%,100%);fill-opacity:1;" d="M 277.640625 164.363281 C 238.128906 164.804688 205.726563 133.113281 205.289063 93.601563 C 204.851563 54.085938 236.539063 21.6875 276.054688 21.246094 C 315.566406 20.808594 347.96875 52.496094 348.40625 92.011719 C 348.84375 131.527344 317.15625 163.925781 277.640625 164.363281 Z M 218.289063 40.863281 C 217.988281 39.902344 217.566406 38.625 217.398438 38.105469 C 210.210938 15.6875 190.289063 14.3125 164.484375 22.671875 C 111.179688 35.714844 60.1875 32.417969 11.726563 11.175781 C 11.917969 27.332031 19.8125 37.917969 38.96875 40.371094 C 43.117188 40.414063 44.890625 42.0625 46.320313 43.9375 C 50.140625 58.367188 60.847656 62.664063 74.683594 62.359375 C 77.484375 62.15625 79.382813 62.992188 80.367188 64.859375 C 86.613281 77.820313 95.78125 79.195313 105.769531 77.332031 C 109.335938 85.082031 115.183594 90.519531 129.179688 87.695313 C 130.351563 94.484375 135.957031 96.664063 141.699219 95.148438 C 143.652344 101.203125 146.597656 103.09375 153.550781 102.242188 C 152.9375 107.222656 152.324219 112.203125 151.710938 117.183594 C 154.179688 116.867188 156.644531 116.546875 159.113281 116.226563 C 158.398438 120.277344 157.683594 124.332031 156.96875 128.382813 C 160.441406 128.074219 163.917969 127.765625 167.394531 127.457031 C 167.578125 131.171875 167.761719 134.886719 167.945313 138.601563 C 171.769531 137.019531 175.597656 135.441406 179.421875 133.859375 C 179.253906 138.847656 179.089844 143.832031 178.925781 148.820313 C 182.082031 146.882813 185.238281 144.949219 188.394531 143.011719 C 190.578125 148.371094 192.757813 153.734375 194.941406 159.09375 L 208.707031 131.355469 C 222.308594 155.34375 248.195313 171.410156 277.714844 171.085938 C 306.671875 170.761719 331.78125 154.75 345.0625 131.222656 L 358.894531 159.09375 C 361.078125 153.734375 363.257813 148.371094 365.441406 143.011719 C 368.597656 144.949219 371.753906 146.882813 374.914063 148.820313 C 374.746094 143.832031 374.582031 138.847656 374.414063 133.859375 C 378.242188 135.441406 382.066406 137.019531 385.890625 138.601563 C 386.074219 134.886719 386.257813 131.171875 386.441406 127.457031 C 389.917969 127.765625 393.394531 128.074219 396.871094 128.382813 C 396.152344 124.332031 395.4375 120.277344 394.722656 116.226563 C 397.191406 116.546875 399.65625 116.867188 402.125 117.183594 C 401.511719 112.203125 400.898438 107.222656 400.285156 102.242188 C 407.238281 103.09375 410.183594 101.203125 412.136719 95.148438 C 417.878906 96.664063 423.484375 94.484375 424.65625 87.695313 C 438.652344 90.519531 444.5 85.082031 448.066406 77.332031 C 458.054688 79.195313 467.226563 77.820313 473.46875 64.859375 C 474.457031 62.992188 476.351563 62.15625 479.152344 62.359375 C 492.988281 62.664063 503.695313 58.367188 507.515625 43.9375 C 508.945313 42.0625 510.71875 40.414063 514.871094 40.371094 C 534.023438 37.917969 541.917969 27.332031 542.109375 11.175781 C 493.652344 32.417969 442.65625 35.714844 389.351563 22.671875 C 362.882813 14.097656 341.28125 15.4375 335.558594 41.03125 C 321.015625 24.558594 299.667969 14.265625 275.980469 14.527344 C 252.996094 14.785156 232.433594 24.925781 218.289063 40.863281 Z M 15.949219 17.105469 C 64.371094 36.882813 114.449219 38.855469 165.335938 26.410156 L 165.464844 26.378906 L 165.589844 26.335938 C 176.722656 22.730469 193.597656 18.621094 204.28125 25.554688 C 209.101563 28.683594 211.996094 33.585938 213.777344 39 C 213.921875 39.433594 214.785156 42.765625 215.246094 44.511719 C 204.625 58.042969 198.363281 75.140625 198.570313 93.675781 C 198.703125 105.730469 201.558594 117.117188 206.542969 127.261719 C 206.265625 127.839844 205.832031 128.75 205.75 128.914063 C 202.257813 135.953125 198.765625 142.992188 195.273438 150.03125 C 194.117188 147.195313 192.964844 144.355469 191.808594 141.519531 L 190.160156 137.46875 L 186.507813 139.710938 C 185.289063 140.453125 184.074219 141.199219 182.859375 141.945313 C 182.949219 139.292969 183.035156 136.644531 183.125 133.992188 L 183.320313 128.117188 L 178.046875 130.296875 C 175.824219 131.214844 173.601563 132.132813 171.382813 133.050781 C 171.285156 131.121094 171.191406 129.191406 171.09375 127.261719 L 170.898438 123.296875 L 167.078125 123.632813 C 165.214844 123.800781 163.347656 123.964844 161.484375 124.128906 C 161.910156 121.726563 162.335938 119.320313 162.757813 116.917969 L 163.667969 111.769531 L 158.652344 112.417969 C 157.765625 112.53125 156.878906 112.648438 155.992188 112.761719 C 156.402344 109.417969 156.816406 106.074219 157.226563 102.726563 L 157.828125 97.855469 L 153.117188 98.429688 C 148.53125 98.992188 146.75 98.695313 145.214844 93.933594 L 144.125 90.542969 L 140.78125 91.429688 C 139.511719 91.765625 135.851563 91.464844 134.628906 90.742188 C 133.5 90.078125 133.035156 88.222656 132.828125 87.019531 L 132.164063 83.179688 L 128.46875 83.925781 C 123 85.03125 116.660156 85.34375 112.449219 80.886719 C 111.039063 79.398438 109.976563 77.554688 109.117188 75.683594 L 107.898438 73.035156 L 105.113281 73.554688 C 94.988281 75.445313 88.503906 73.15625 83.683594 63.144531 L 83.621094 63.019531 C 81.75 59.476563 78.246094 58.28125 74.523438 58.523438 C 62.753906 58.769531 53.273438 55.6875 49.894531 42.921875 L 49.695313 42.167969 L 49.226563 41.554688 C 46.5625 38.066406 43.488281 36.628906 39.226563 36.539063 C 26.175781 34.820313 18.011719 29.128906 15.949219 17.105469 Z M 339.054688 45.285156 C 348.964844 58.234375 354.929688 74.378906 355.125 91.9375 C 355.265625 104.566406 352.402344 116.527344 347.203125 127.148438 C 350.78125 134.359375 355 142.851563 358.5625 150.03125 C 359.71875 147.195313 360.871094 144.355469 362.027344 141.519531 L 363.675781 137.46875 L 367.332031 139.710938 C 368.546875 140.453125 369.761719 141.199219 370.976563 141.945313 C 370.886719 139.292969 370.800781 136.644531 370.710938 133.992188 L 370.519531 128.117188 L 375.789063 130.296875 C 378.011719 131.214844 380.234375 132.132813 382.457031 133.050781 C 382.550781 131.121094 382.648438 129.191406 382.742188 127.261719 L 382.941406 123.296875 L 386.757813 123.632813 C 388.625 123.800781 390.488281 123.964844 392.351563 124.128906 C 391.925781 121.726563 391.503906 119.320313 391.078125 116.917969 L 390.167969 111.769531 L 395.183594 112.417969 C 396.070313 112.53125 396.957031 112.648438 397.84375 112.761719 C 397.433594 109.417969 397.019531 106.074219 396.609375 102.726563 L 396.007813 97.855469 L 400.71875 98.429688 C 405.308594 98.992188 407.085938 98.695313 408.621094 93.933594 L 409.714844 90.542969 L 413.054688 91.429688 C 414.324219 91.765625 417.984375 91.464844 419.210938 90.742188 C 420.335938 90.078125 420.800781 88.222656 421.007813 87.019531 L 421.671875 83.179688 L 425.367188 83.925781 C 430.839844 85.03125 437.175781 85.34375 441.386719 80.886719 C 442.796875 79.398438 443.859375 77.554688 444.71875 75.683594 L 445.9375 73.035156 L 448.722656 73.554688 C 458.847656 75.445313 465.332031 73.15625 470.152344 63.144531 L 470.183594 63.082031 L 470.21875 63.019531 C 472.089844 59.476563 475.59375 58.28125 479.3125 58.523438 C 491.085938 58.769531 500.5625 55.6875 503.941406 42.921875 L 504.140625 42.167969 L 504.609375 41.554688 C 507.273438 38.066406 510.347656 36.628906 514.609375 36.539063 C 527.660156 34.820313 535.824219 29.128906 537.886719 17.105469 C 489.464844 36.882813 439.386719 38.855469 388.5 26.410156 L 388.371094 26.378906 L 388.246094 26.335938 C 377.113281 22.730469 360.238281 18.621094 349.554688 25.554688 C 344.902344 28.574219 342.042969 33.25 340.246094 38.441406 C 340.039063 39.042969 339.402344 43.285156 339.054688 45.285156 Z M 339.054688 45.285156 "/>
<path style=" stroke:none;fill-rule:evenodd;fill:rgb(0%,61.914063%,87.889099%);fill-opacity:1;" d="M 340.835938 41.675781 C 345.269531 21.902344 369.019531 22.324219 401.546875 31.929688 C 447.191406 43.941406 500.828125 35.097656 534.816406 20.652344 C 532.21875 28.042969 527.445313 33.238281 509.402344 35.527344 C 505.285156 37.164063 499.664063 39.210938 495.046875 40.597656 C 462.300781 48.355469 429.066406 48.476563 395.234375 38.613281 C 365.933594 26.351563 354.160156 33.476563 344.886719 43.371094 C 341.804688 45.699219 340.839844 44.492188 340.835938 41.675781 Z M 340.835938 41.675781 "/>
<path style=" stroke:none;fill-rule:evenodd;fill:rgb(0%,61.914063%,87.889099%);fill-opacity:1;" d="M 356.230469 35.929688 C 351.21875 38.65625 346.054688 43.480469 343.753906 48.035156 C 357.324219 68.558594 360.445313 93.285156 352.277344 120.90625 C 356.773438 127.9375 362.046875 135.175781 368.753906 138.449219 C 368.816406 131.257813 366.332031 124.09375 360.125 116.972656 C 362.875 102.425781 360.832031 88.210938 357.3125 74.199219 C 355.03125 59.984375 354.898438 47.402344 356.230469 35.929688 Z M 356.230469 35.929688 "/>
<path style=" stroke:none;fill-rule:evenodd;fill:rgb(0%,61.914063%,87.889099%);fill-opacity:1;" d="M 357.5 36.144531 C 371.125 30.496094 391.480469 37.976563 420.84375 53.65625 C 412.507813 54.679688 404.167969 55.183594 395.835938 56.207031 C 384.117188 47.039063 371.125 42.933594 357.582031 45.328125 C 357.554688 42.832031 357.527344 38.640625 357.5 36.144531 Z M 357.5 36.144531 "/>
<path style=" stroke:none;fill-rule:evenodd;fill:rgb(0%,61.914063%,87.889099%);fill-opacity:1;" d="M 406.808594 44.0625 C 438.691406 51.417969 471.519531 49.664063 502.707031 41.914063 C 501.285156 51.820313 490.3125 56.984375 473.976563 57.265625 C 450.789063 59.9375 416.449219 52.988281 406.808594 44.0625 Z M 406.808594 44.0625 "/>
<path style=" stroke:none;fill-rule:evenodd;fill:rgb(0%,61.914063%,87.889099%);fill-opacity:1;" d="M 358.292969 47.457031 C 373.585938 45.46875 386.714844 51.847656 401.613281 61.914063 C 414.75 70.066406 429.085938 73.34375 443.933594 74.042969 C 438.019531 86.644531 420.628906 83.421875 398.367188 73.078125 C 382.730469 61.03125 371.257813 57.234375 358.21875 57.6875 C 358.296875 54.78125 358.210938 50.363281 358.292969 47.457031 Z M 358.292969 47.457031 "/>
<path style=" stroke:none;fill-rule:evenodd;fill:rgb(0%,61.914063%,87.889099%);fill-opacity:1;" d="M 399.054688 58.609375 C 406.605469 57.828125 417.011719 55.839844 424.5625 55.054688 C 439.386719 61.132813 453.847656 61.234375 469.816406 60.121094 C 463.316406 75.355469 433.679688 75.894531 399.054688 58.609375 Z M 399.054688 58.609375 "/>
<path style=" stroke:none;fill-rule:evenodd;fill:rgb(0%,61.914063%,87.889099%);fill-opacity:1;" d="M 358.238281 59.601563 C 369.179688 59.070313 379.871094 63.648438 390.445313 70.554688 C 381.777344 70.015625 373.082031 69.4375 366.214844 67.003906 C 362.21875 66.089844 359.585938 65.132813 358.523438 63.867188 C 357.460938 62.601563 357.96875 61.027344 358.238281 59.601563 Z M 358.238281 59.601563 "/>
<path style=" stroke:none;fill-rule:evenodd;fill:rgb(0%,61.914063%,87.889099%);fill-opacity:1;" d="M 365.167969 69.125 C 373.234375 71.292969 384.976563 72.324219 392.152344 72.476563 C 398.691406 77.035156 408.207031 81.023438 419.660156 83.664063 C 417.707031 88.246094 419.253906 90.191406 401.71875 87.847656 C 387.164063 83.566406 373.363281 76.777344 365.167969 69.125 Z M 365.167969 69.125 "/>
<path style=" stroke:none;fill-rule:evenodd;fill:rgb(0%,61.914063%,87.889099%);fill-opacity:1;" d="M 407.304688 91.617188 C 389.96875 89.515625 372.46875 80.441406 358.125 64.832031 C 358.039063 67.039063 358.296875 70.113281 358.207031 72.320313 C 370.46875 88.777344 381.847656 95.148438 396.105469 96.300781 C 401.710938 96.699219 408.515625 94.972656 407.304688 91.617188 Z M 407.304688 91.617188 "/>
<path style=" stroke:none;fill-rule:evenodd;fill:rgb(0%,61.914063%,87.889099%);fill-opacity:1;" d="M 359.277344 78.230469 C 368.117188 88.03125 378.671875 95.761719 389.238281 97.988281 C 394.976563 100.304688 396.027344 105.453125 396.421875 111.082031 C 385.414063 109.773438 380.195313 104.871094 374.632813 100.179688 C 368.097656 93.808594 364.109375 87.933594 359.816406 81.535156 C 359.636719 80.433594 359.457031 79.332031 359.277344 78.230469 Z M 359.277344 78.230469 "/>
<path style=" stroke:none;fill-rule:evenodd;fill:rgb(0%,61.914063%,87.889099%);fill-opacity:1;" d="M 362.089844 89.871094 C 362.863281 93.929688 363.222656 101.472656 363.097656 105.539063 C 368.304688 110.765625 374.964844 115.800781 381.058594 119.621094 C 383.878906 121.5625 386.796875 122.226563 390.496094 122.300781 C 389.898438 117.414063 388.765625 113.390625 384.15625 110.875 C 380.71875 108.707031 377.113281 106.890625 373.839844 104.371094 C 369.992188 100.875 365.601563 93.546875 362.089844 89.871094 Z M 362.089844 89.871094 "/>
<path style=" stroke:none;fill-rule:evenodd;fill:rgb(0%,61.914063%,87.889099%);fill-opacity:1;" d="M 363.136719 109.199219 C 362.886719 111.757813 362.632813 114.316406 362.378906 116.875 C 366.046875 119.273438 369.226563 123.355469 372.90625 127.207031 C 375.332031 128.746094 378.257813 130.109375 380.667969 130.253906 C 380.863281 127.578125 379.828125 124.917969 378.230469 122.265625 C 372.609375 118.226563 367.859375 113.71875 363.136719 109.199219 Z M 363.136719 109.199219 "/>
<path style=" stroke:none;fill-rule:evenodd;fill:rgb(0%,61.914063%,87.889099%);fill-opacity:1;" d="M 350.851563 122.753906 C 350.136719 124.042969 349.421875 125.328125 348.707031 126.613281 C 352.460938 131.96875 355.554688 138.382813 357.976563 145.148438 C 362.421875 137.105469 356.796875 129.738281 350.851563 122.753906 Z M 350.851563 122.753906 "/>
<path style=" stroke:none;fill-rule:evenodd;fill:rgb(0%,61.914063%,87.889099%);fill-opacity:1;" d="M 213 41.675781 C 208.566406 21.902344 184.820313 22.324219 152.289063 31.929688 C 106.644531 43.941406 53.007813 35.097656 19.019531 20.652344 C 21.617188 28.042969 26.390625 33.238281 44.4375 35.527344 C 48.554688 37.164063 54.171875 39.210938 58.789063 40.597656 C 91.535156 48.355469 124.769531 48.476563 158.601563 38.613281 C 187.902344 26.351563 199.675781 33.476563 208.949219 43.371094 C 212.035156 45.699219 212.996094 44.492188 213 41.675781 Z M 213 41.675781 "/>
<path style=" stroke:none;fill-rule:evenodd;fill:rgb(0%,61.914063%,87.889099%);fill-opacity:1;" d="M 197.605469 35.929688 C 202.617188 38.65625 208.289063 43.484375 210.589844 48.035156 C 197.191406 67.117188 191.929688 94.953125 201.894531 120.90625 C 197.398438 127.9375 191.789063 135.175781 185.082031 138.449219 C 185.019531 131.257813 187.503906 124.09375 193.714844 116.972656 C 190.960938 102.425781 193.003906 88.210938 196.523438 74.199219 C 198.804688 59.984375 198.9375 47.402344 197.605469 35.929688 Z M 197.605469 35.929688 "/>
<path style=" stroke:none;fill-rule:evenodd;fill:rgb(0%,61.914063%,87.889099%);fill-opacity:1;" d="M 196.335938 36.480469 C 182.710938 30.832031 161.347656 38.3125 132.996094 53.65625 C 141.328125 54.679688 149.667969 55.183594 158 56.207031 C 167.535156 48.722656 182.878906 41.925781 196.589844 45.328125 C 196.617188 42.832031 196.3125 38.976563 196.335938 36.480469 Z M 196.335938 36.480469 "/>
<path style=" stroke:none;fill-rule:evenodd;fill:rgb(0%,61.914063%,87.889099%);fill-opacity:1;" d="M 149.042969 43.054688 C 111.449219 51.753906 82.316406 49.664063 51.132813 41.914063 C 52.550781 51.820313 63.523438 56.984375 79.859375 57.265625 C 103.046875 59.9375 139.402344 51.980469 149.042969 43.054688 Z M 149.042969 43.054688 "/>
<path style=" stroke:none;fill-rule:evenodd;fill:rgb(0%,61.914063%,87.889099%);fill-opacity:1;" d="M 196.046875 47.628906 C 183.273438 43.785156 167.457031 52.351563 152.558594 62.417969 C 143.734375 67.894531 133.417969 69.820313 123.867188 72.140625 C 119.203125 73.273438 115.277344 73.476563 110.40625 73.707031 C 113.96875 85.46875 133.207031 83.421875 155.46875 73.078125 C 171.109375 61.03125 182.914063 57.234375 195.953125 57.6875 C 195.875 54.78125 196.128906 50.53125 196.046875 47.628906 Z M 196.046875 47.628906 "/>
<path style=" stroke:none;fill-rule:evenodd;fill:rgb(0%,61.914063%,87.889099%);fill-opacity:1;" d="M 154.78125 58.609375 C 147.230469 57.828125 137.160156 55.503906 129.609375 54.71875 C 115.121094 60.628906 101.164063 61.90625 85.195313 60.796875 C 91.476563 75.175781 116.851563 75.234375 154.78125 58.609375 Z M 154.78125 58.609375 "/>
<path style=" stroke:none;fill-rule:evenodd;fill:rgb(0%,61.914063%,87.889099%);fill-opacity:1;" d="M 195.597656 59.601563 C 184.65625 59.070313 173.964844 63.648438 163.390625 70.554688 C 172.058594 70.015625 180.753906 69.4375 187.621094 67.003906 C 191.621094 66.089844 194.25 65.132813 195.3125 63.867188 C 196.375 62.601563 195.871094 61.027344 195.597656 59.601563 Z M 195.597656 59.601563 "/>
<path style=" stroke:none;fill-rule:evenodd;fill:rgb(0%,61.914063%,87.889099%);fill-opacity:1;" d="M 187.578125 69.964844 C 178.78125 72.265625 168.242188 72.585938 161.683594 72.644531 C 155.144531 77.203125 145.628906 80.179688 134.175781 82.820313 C 136.300781 89.425781 139.121094 90.527344 152.117188 87.847656 C 166.675781 83.566406 179.378906 77.617188 187.578125 69.964844 Z M 187.578125 69.964844 "/>
<path style=" stroke:none;fill-rule:evenodd;fill:rgb(0%,61.914063%,87.889099%);fill-opacity:1;" d="M 146.53125 91.617188 C 163.867188 89.515625 181.367188 80.441406 195.710938 64.832031 C 195.796875 67.039063 195.542969 70.113281 195.628906 72.320313 C 183.367188 88.777344 172.15625 93.300781 159.242188 95.628906 C 149.4375 97.878906 145.320313 94.972656 146.53125 91.617188 Z M 146.53125 91.617188 "/>
<path style=" stroke:none;fill-rule:evenodd;fill:rgb(0%,61.914063%,87.889099%);fill-opacity:1;" d="M 194.558594 78.230469 C 185.71875 88.03125 176.175781 94.078125 165.605469 97.820313 C 159.867188 100.136719 157.808594 105.453125 157.414063 111.082031 C 168.421875 109.773438 173.640625 104.871094 179.203125 100.179688 C 185.738281 93.808594 189.726563 87.933594 194.019531 81.535156 C 194.199219 80.433594 194.378906 79.332031 194.558594 78.230469 Z M 194.558594 78.230469 "/>
<path style=" stroke:none;fill-rule:evenodd;fill:rgb(0%,61.914063%,87.889099%);fill-opacity:1;" d="M 191.746094 89.871094 C 190.972656 93.929688 190.613281 101.472656 190.738281 105.539063 C 185.53125 110.765625 178.871094 115.800781 172.777344 119.621094 C 169.957031 121.5625 167.039063 122.226563 163.339844 122.300781 C 163.9375 117.414063 165.070313 113.390625 169.679688 110.875 C 173.121094 108.707031 176.722656 106.890625 180 104.371094 C 183.84375 100.875 188.234375 93.546875 191.746094 89.871094 Z M 191.746094 89.871094 "/>
<path style=" stroke:none;fill-rule:evenodd;fill:rgb(0%,61.914063%,87.889099%);fill-opacity:1;" d="M 190.699219 109.199219 C 190.953125 111.757813 191.203125 114.316406 191.457031 116.875 C 187.792969 119.273438 184.613281 123.355469 180.929688 127.207031 C 178.503906 128.746094 175.578125 130.109375 173.167969 130.253906 C 172.972656 127.578125 174.011719 124.917969 175.605469 122.265625 C 181.226563 118.226563 185.976563 113.71875 190.699219 109.199219 Z M 190.699219 109.199219 "/>
<path style=" stroke:none;fill-rule:evenodd;fill:rgb(100%,100%,100%);fill-opacity:1;" d="M 306.136719 48.375 L 313.40625 34.476563 L 315.785156 36.542969 L 310.640625 45.960938 L 319.625 39.886719 L 322.386719 42.292969 L 317.40625 52.085938 L 326.167969 45.585938 L 328.507813 47.621094 L 315.695313 56.695313 L 313.230469 54.550781 L 318.429688 43.953125 L 308.65625 50.566406 Z M 306.136719 48.375 "/>
<path style=" stroke:none;fill-rule:evenodd;fill:rgb(100%,100%,100%);fill-opacity:1;" d="M 266.464844 39.75 L 266.679688 24.492188 L 271.289063 24.558594 L 273.910156 35.003906 L 276.789063 24.636719 L 281.410156 24.699219 L 281.199219 39.957031 L 278.335938 39.917969 L 278.507813 27.90625 L 275.308594 39.875 L 272.34375 39.832031 L 269.492188 27.78125 L 269.324219 39.789063 Z M 266.464844 39.75 "/>
<path style=" stroke:none;fill-rule:evenodd;fill:rgb(100%,100%,100%);fill-opacity:1;" d="M 234.453125 50.949219 L 237.417969 53.75 L 239.375 51.675781 C 240.136719 50.867188 240.59375 50.332031 240.757813 50.074219 C 241.007813 49.683594 241.117188 49.273438 241.082031 48.84375 C 241.046875 48.414063 240.828125 48.007813 240.4375 47.640625 C 240.105469 47.324219 239.742188 47.140625 239.359375 47.082031 C 238.972656 47.027344 238.582031 47.097656 238.191406 47.304688 C 237.796875 47.507813 237.117188 48.125 236.160156 49.140625 Z M 230.039063 46.789063 L 232.605469 49.207031 L 233.988281 47.738281 C 234.8125 46.867188 235.3125 46.3125 235.484375 46.074219 C 235.800781 45.652344 235.957031 45.226563 235.945313 44.796875 C 235.929688 44.371094 235.742188 43.988281 235.386719 43.652344 C 235.042969 43.328125 234.675781 43.15625 234.28125 43.144531 C 233.886719 43.128906 233.492188 43.292969 233.097656 43.621094 C 232.863281 43.820313 232.246094 44.445313 231.253906 45.5 Z M 226.074219 47.289063 L 230.261719 42.851563 C 231.089844 41.972656 231.746094 41.351563 232.226563 40.988281 C 232.707031 40.628906 233.222656 40.382813 233.777344 40.261719 C 234.328125 40.140625 234.902344 40.152344 235.503906 40.289063 C 236.105469 40.425781 236.644531 40.71875 237.125 41.171875 C 237.644531 41.660156 237.992188 42.25 238.160156 42.9375 C 238.332031 43.628906 238.296875 44.316406 238.0625 45 C 238.894531 44.511719 239.722656 44.304688 240.539063 44.390625 C 241.355469 44.476563 242.085938 44.820313 242.726563 45.421875 C 243.230469 45.898438 243.613281 46.480469 243.867188 47.164063 C 244.121094 47.847656 244.203125 48.53125 244.101563 49.203125 C 244.003906 49.875 243.710938 50.546875 243.210938 51.203125 C 242.902344 51.613281 242.085938 52.550781 240.738281 53.980469 L 237.175781 57.757813 Z M 226.074219 47.289063 "/>
<path style=" stroke:none;fill-rule:evenodd;fill:rgb(100%,100%,100%);fill-opacity:1;" d="M 277.921875 90.230469 C 277.921875 75.425781 277.921875 60.394531 277.921875 45.589844 C 302.050781 45.453125 323.1875 66.917969 322.507813 90.230469 C 307.71875 90.230469 292.707031 90.230469 277.921875 90.230469 Z M 277.921875 90.230469 "/>
<path style=" stroke:none;fill-rule:evenodd;fill:rgb(0%,61.914063%,87.889099%);fill-opacity:1;" d="M 276.132813 90.230469 C 276.132813 75.425781 276.132813 60.394531 276.132813 45.589844 C 252.007813 45.453125 230.867188 66.917969 231.550781 90.230469 C 246.335938 90.230469 261.347656 90.230469 276.132813 90.230469 Z M 276.132813 90.230469 "/>
<path style=" stroke:none;fill-rule:evenodd;fill:rgb(100%,100%,100%);fill-opacity:1;" d="M 276.132813 91.871094 C 276.132813 106.675781 276.132813 121.855469 276.132813 136.660156 C 252.007813 136.796875 230.71875 115.183594 231.398438 91.871094 C 246.1875 91.871094 261.347656 91.871094 276.132813 91.871094 Z M 276.132813 91.871094 "/>
<path style=" stroke:none;fill-rule:evenodd;fill:rgb(0%,61.914063%,87.889099%);fill-opacity:1;" d="M 277.625 91.871094 C 277.625 106.675781 277.625 121.855469 277.625 136.660156 C 301.75 136.796875 323.039063 115.183594 322.359375 91.871094 C 307.570313 91.871094 292.410156 91.871094 277.625 91.871094 Z M 277.625 91.871094 "/>
<path style=" stroke:none;fill-rule:evenodd;fill:rgb(100%,100%,100%);fill-opacity:1;" d="M 231.742188 92.414063 L 275.757813 92.414063 L 275.757813 136.3125 C 251.84375 135.699219 232.429688 116.324219 231.742188 92.414063 Z M 278.183594 136.308594 L 278.183594 92.414063 L 322.097656 92.414063 C 321.429688 116.289063 302.066406 135.644531 278.183594 136.308594 Z M 322.101563 89.984375 L 278.183594 89.984375 L 278.183594 45.949219 C 302.125 46.601563 321.523438 66.042969 322.101563 89.984375 Z M 275.757813 45.945313 L 275.757813 89.984375 L 231.738281 89.984375 C 232.332031 66.011719 251.785156 46.542969 275.757813 45.945313 Z M 228.527344 91.109375 C 228.53125 117.765625 250.28125 139.515625 276.921875 139.523438 C 303.574219 139.515625 325.324219 117.765625 325.308594 91.109375 C 325.324219 64.472656 303.574219 42.71875 276.921875 42.734375 C 250.28125 42.71875 228.53125 64.472656 228.527344 91.109375 Z M 228.527344 91.109375 "/>
</g>
</svg>
